<svg viewBox="0 0 16 16" xmlns="http://www.w3.org/2000/svg">
<path d="M11.4447 2.42095C11.069 2.21688 10.5989 2.35597 10.3949 2.73172C10.1907 3.10741 10.3299 3.57744 10.7056 3.78157C12.5387 4.77734 13.6774 6.69038 13.6774 8.7742C13.6774 11.9047 11.1305 14.4516 7.99998 14.4516C4.86945 14.4516 2.32256 11.9047 2.32256 8.7742C2.32256 6.69946 3.45396 4.7904 5.27523 3.79195C5.6502 3.58643 5.78749 3.11582 5.58196 2.7409C5.37639 2.36599 4.90578 2.22864 4.53092 2.43417C2.21371 3.70452 0.77417 6.13388 0.77417 8.7742C0.77417 12.7585 4.01567 16 7.99998 16C11.9843 16 15.2258 12.7585 15.2258 8.7742C15.2258 6.12232 13.777 3.6879 11.4447 2.42095Z" fill="currentColor"/>
<path d="M7.99996 6.70968C8.42752 6.70968 8.77416 6.36305 8.77416 5.93548V0.774194C8.77416 0.346632 8.42752 0 7.99996 0C7.5724 0 7.22577 0.346632 7.22577 0.774194V5.93548C7.22577 6.36305 7.5724 6.70968 7.99996 6.70968Z" fill="currentColor"/>
</svg>
